<svg xmlns="http://www.w3.org/2000/svg" xmlns:xlink="http://www.w3.org/1999/xlink" viewBox="0 0 512 512">
  <defs>
    <clipPath id="a">
      <circle cx="256" cy="257" r="224" style="fill: none"/>
    </clipPath>
  </defs>
  <title>Collection</title>
  <circle cx="256" cy="257" r="224" style="fill: #fac135"/>
  <g style="clip-path: url(#a)">
    <polygon points="237 297 203 260 177 191 191 149 209 134 242 121 304 131 329.895 154.213 522 347 326 526 287 484 152 347 240 365 243 357 244 352 201.26 313.333 249 305 237 297" style="fill: #e7b332"/>
  </g>
  <rect x="349.183" y="292.004" width="40.817" height="92.679" rx="8" style="fill: #fefefe"/>
  <path d="M350.143,307.851s-38.416-12.486-75.391-13.926a542.151,542.151,0,0,0-63.387.96s-18.248,1.921-15.847,11.525c2.34,9.358,27.018,19.628,72.258,21.481a28.105,28.105,0,0,1,10.672,2.5,14.78,14.78,0,0,1,5.427,3.875c3.362,4.322,7.2,11.044-4.8,15.366-9.138,3.29-25.513,1.571-32.81.563a28.87,28.87,0,0,1-10.106-3.368c-8.5-4.732-20.819-14.56-42.079-29.848-42.738-30.733-59.065-26.892-63.867-26.412-4.274.428-17.768,3.362-16.327,14.887,1.434,11.475,49.461,61.466,87.877,79.233s114.768,6.243,145.021-12.485l20.168-12.966-2.4-41.777Z" style="fill: #fefefe"/>
  <path d="M254.5,280A85.5,85.5,0,1,1,340,194.5,85.6,85.6,0,0,1,254.5,280Zm0-151A65.5,65.5,0,1,0,320,194.5,65.574,65.574,0,0,0,254.5,129Z" style="fill: #fefefe"/>
  <path d="M285.737,198.4q-5.646-9.535-21.708-13.929l-2.454-.629V161.5a10.306,10.306,0,0,1,3.333,2.637,13.21,13.21,0,0,1,3.137,8.533h17.818q-.753-12.3-8.909-19.2a33.218,33.218,0,0,0-15.379-6.9V136H245.7v10.449a32.743,32.743,0,0,0-15.673,6.773q-8.912,7.405-8.909,19.575,0,11.292,7.779,17.441,5.4,4.3,16.8,7.389v26.022a15.594,15.594,0,0,1-8.9-15.091H218.982q2.531,26.706,26.716,30.7V250.75h15.877V239.389q13.563-1.943,21.151-10.628Q289,221.485,289,213.577,289,204.043,285.737,198.4ZM241.506,177.44a8.061,8.061,0,0,1-2.572-6.4,9.328,9.328,0,0,1,3.388-7.654,12.152,12.152,0,0,1,3.376-1.953v18.326A13.675,13.675,0,0,1,241.506,177.44Zm25.159,44.294a15.245,15.245,0,0,1-5.09,2.628V202.241a22.333,22.333,0,0,1,6.721,3.306q2.885,2.385,2.886,7.278A10.614,10.614,0,0,1,266.665,221.734Z" style="fill: #fff"/>
</svg>
