<svg xmlns="http://www.w3.org/2000/svg" xmlns:xlink="http://www.w3.org/1999/xlink" viewBox="0 0 512 512">
  <defs>
    <clipPath id="a">
      <circle cx="256" cy="257" r="224" style="fill: none"/>
    </clipPath>
  </defs>
  <title>Carbon</title>
  <circle cx="256" cy="257" r="224" style="fill: #51bba9"/>
  <g style="clip-path: url(#a)">
    <path d="M493,295,339.642,132.846,295,135l-39,22.556-36.8-29.334L166,135l-7,29,6,55-6,11,47,52-7,115,96,97,124-29s56-45,56-46S493,295,493,295Z" style="fill: #4aab9a"/>
  </g>
  <g>
    <path d="M165.288,236.366a36.745,36.745,0,0,1-16.43-15.144Q143.2,211.276,143.2,197.2V164.534q0-14.079,5.659-24.026a36.985,36.985,0,0,1,16.43-15.184q10.77-5.238,25.923-5.24a50.194,50.194,0,0,1,22.364,4.83,42.361,42.361,0,0,1,16.293,14.039,56.721,56.721,0,0,1,8.9,22.225H212.844a28.426,28.426,0,0,0-4.518-10.069,20.856,20.856,0,0,0-7.393-6.385,21.093,21.093,0,0,0-9.722-2.21,25.523,25.523,0,0,0-11.957,2.579,17.477,17.477,0,0,0-7.531,7.531,25.321,25.321,0,0,0-2.6,11.91V197.2a25.065,25.065,0,0,0,2.6,11.869,17.531,17.531,0,0,0,7.531,7.491,25.523,25.523,0,0,0,11.957,2.578,21.906,21.906,0,0,0,9.858-2.169,19.95,19.95,0,0,0,7.394-6.344,27.705,27.705,0,0,0,4.381-10.151h25.924a57.749,57.749,0,0,1-8.992,22.225,42.437,42.437,0,0,1-16.247,14.039,49.873,49.873,0,0,1-22.318,4.83Q176.058,241.564,165.288,236.366Z" style="fill: #fff"/>
    <path d="M278.246,236.12a40.253,40.253,0,0,1-17.024-15.39,43.6,43.6,0,0,1-6.024-23.043V163.961a43.6,43.6,0,0,1,6.024-23.044,40.27,40.27,0,0,1,17.024-15.389q11-5.444,25.421-5.444t25.421,5.444a40.279,40.279,0,0,1,17.023,15.389,43.6,43.6,0,0,1,6.025,23.044v33.726a43.6,43.6,0,0,1-6.025,23.043,40.262,40.262,0,0,1-17.023,15.39q-11,5.445-25.421,5.444T278.246,236.12Zm37.287-19.564a18.682,18.682,0,0,0,7.9-7.327,21.286,21.286,0,0,0,2.783-10.969V163.388a21.291,21.291,0,0,0-2.783-10.969,18.686,18.686,0,0,0-7.9-7.326,28.59,28.59,0,0,0-23.733,0,18.666,18.666,0,0,0-7.9,7.326,21.272,21.272,0,0,0-2.784,10.969V198.26a21.267,21.267,0,0,0,2.784,10.969,18.662,18.662,0,0,0,7.9,7.327,28.6,28.6,0,0,0,23.733,0Z" style="fill: #fff"/>
    <path d="M359.791,233.637l15.092-17.793a10.021,10.021,0,0,0,1.588-2.455,5.836,5.836,0,0,0,.559-2.346v-.054a2.909,2.909,0,0,0-1.149-2.468,5.335,5.335,0,0,0-3.267-.869,4.63,4.63,0,0,0-3.326,1.207,5.468,5.468,0,0,0-1.543,3.432v.026h-8.5v-.026a13.344,13.344,0,0,1,1.981-6.347,11.068,11.068,0,0,1,4.612-4.055,15.313,15.313,0,0,1,6.714-1.4,18.385,18.385,0,0,1,7.031,1.207,9.519,9.519,0,0,1,4.447,3.512,9.852,9.852,0,0,1,1.527,5.56v.028a14.427,14.427,0,0,1-1.043,5.329,16.312,16.312,0,0,1-2.919,4.788L370.77,233.175H385.8v7.161h-26.01Z" style="fill: #fff"/>
  </g>
  <g>
    <rect x="173.75" y="263" width="50" height="73" style="fill: #fff"/>
    <polygon points="198.75 397 142.25 335 255.25 335 198.75 397" style="fill: #fff"/>
  </g>
  <g>
    <rect x="269.75" y="312" width="50" height="73" transform="translate(589.5 697) rotate(180)" style="fill: #fff"/>
    <polygon points="294.75 251 351.25 313 238.25 313 294.75 251" style="fill: #fff"/>
  </g>
</svg>
