<svg xmlns="http://www.w3.org/2000/svg" xmlns:xlink="http://www.w3.org/1999/xlink" viewBox="0 0 512 512">
  <defs>
    <clipPath id="a">
      <circle cx="256" cy="257" r="224" style="fill: none"/>
    </clipPath>
  </defs>
  <title>transfer</title>
  <circle cx="256" cy="257" r="224" style="fill: #3e9fe1"/>
  <g style="clip-path: url(#a)">
    <polygon points="348.443 164.823 525 341 367 497 289 486 167 358 135 318 136 238 163 175 235 135 299 144 348.443 164.823" style="fill: #348cc8"/>
  </g>
  <g>
    <path d="M418.586,246.59,380.224,197.9a8,8,0,0,0-12.521-.058l-39.112,48.7A5.813,5.813,0,0,0,333.123,256H358.5A103.617,103.617,0,0,1,255,359.5a102.585,102.585,0,0,1-68.766-26.137,8.025,8.025,0,0,0-10.954.185l-11.493,11.181a7.992,7.992,0,0,0,.157,11.625A134.307,134.307,0,0,0,255,391.5c74.715,0,135.5-60.785,135.5-135.5h23.52A5.813,5.813,0,0,0,418.586,246.59Z" style="fill: #fff"/>
    <path d="M176.02,257H151.514c0-.334-.014-.666-.014-1A103.617,103.617,0,0,1,255,152.5a102.539,102.539,0,0,1,69.072,26.41,8.023,8.023,0,0,0,10.954-.143l11.536-11.136a7.991,7.991,0,0,0-.112-11.626A134.249,134.249,0,0,0,255,120.5c-74.715,0-135.5,60.785-135.5,135.5,0,.334.011.666.014,1H95.123a5.813,5.813,0,0,0-4.566,9.41l38.361,48.69a8,8,0,0,0,12.522.058l39.112-48.705A5.813,5.813,0,0,0,176.02,257Z" style="fill: #fff"/>
  </g>
  <path d="M299.479,263.455q-7.824-13.212-30.079-19.3c-1.241-.319-2.365-.608-3.4-.872V212.335a14.238,14.238,0,0,1,4.617,3.654,18.3,18.3,0,0,1,4.347,11.823h24.689q-1.043-17.037-12.344-26.6-8.37-7.068-21.309-9.565V177H244v14.478a45.373,45.373,0,0,0-21.717,9.385q-12.348,10.26-12.345,27.123,0,15.648,10.78,24.167Q228.2,258.107,244,262.391v36.057a22.14,22.14,0,0,1-7.286-5.61q-5.217-6.083-5.043-15.3H206.982q3.507,37,37.018,42.54V336h22V320.257q18.792-2.69,29.306-14.726Q304,295.45,304,284.493,304,271.281,299.479,263.455Zm-61.287-29.036q-3.567-3.129-3.565-8.867,0-6.781,4.695-10.606a16.815,16.815,0,0,1,4.678-2.7v25.392A18.919,18.919,0,0,1,238.192,234.419Zm34.86,61.375A21.137,21.137,0,0,1,266,299.436V268.784c4.272,1.468,7.388,3,9.312,4.581q4,3.306,4,10.085A14.7,14.7,0,0,1,273.052,295.794Z" style="fill: #fff"/>
</svg>
