<svg xmlns="http://www.w3.org/2000/svg" xmlns:xlink="http://www.w3.org/1999/xlink" viewBox="0 0 512 512">
  <defs>
    <linearGradient id="a" x1="241.968" y1="372.563" x2="241.968" y2="129.452" gradientTransform="translate(0 8)" gradientUnits="userSpaceOnUse">
      <stop offset="0" stop-color="#80bd36"/>
      <stop offset="0.554" stop-color="#fff6a4"/>
      <stop offset="1" stop-color="#79ba38"/>
    </linearGradient>
    <linearGradient id="b" x1="230.817" y1="285.887" x2="374.156" y2="285.887" gradientUnits="userSpaceOnUse">
      <stop offset="0" stop-color="#6eb744"/>
      <stop offset="0.914" stop-color="#0080c9"/>
    </linearGradient>
    <linearGradient id="c" x1="156.56" y1="177.419" x2="314.407" y2="335.266" gradientUnits="userSpaceOnUse">
      <stop offset="0" stop-color="#6eb744"/>
      <stop offset="0.645" stop-color="#0080c9"/>
    </linearGradient>
  </defs>
  <title>LOGO</title>
  <g>
    <path d="M374.156,258.671A123.787,123.787,0,1,1,250.367,134.885,123.787,123.787,0,0,1,374.156,258.671Z" style="fill: #fff"/>
    <path d="M446.554,306.681h7.528c9.981,0,19.961.059,29.942-.038,2.421-.025,3.2.8,3.152,3.207-.136,6.2-.122,12.412,0,18.615.042,2.223-.775,2.919-2.918,2.912-19.962-.052-39.926.128-59.884-.112-7.966-.094-15.931-.073-23.894-.212-.713-.014-1.666.411-2.087-.379-.41-.769.393-1.378.807-1.969q16.059-22.84,32.139-45.666c8.429-12.008,16.872-24.009,25.176-36.1,4.967-7.232,3.144-16.255-4.078-20.878a13.844,13.844,0,0,0-15.024-.394c-4.78,2.648-7.191,6.795-7.354,12.321-.053,1.792,1.193,3.984-.2,5.271-1.245,1.148-3.343,1.419-5.1,1.962-5.524,1.711-11.083,3.308-16.59,5.072-2.065.661-2.851-.035-3.317-2.007-5.243-22.156,7.985-41.192,27.585-47.471,14.21-4.553,27.433-2.244,39.362,6.439,16.357,11.908,21,33.49,10.857,50.055-5.747,9.385-12.847,17.8-19.331,26.654-5.156,7.037-10.43,13.981-15.645,20.966C447.379,305.317,447.142,305.752,446.554,306.681Z" style="fill: #6eb744;fill-rule: evenodd"/>
    <path d="M306.48,154.2l-2.17,3.723-4.651,2.168a10.062,10.062,0,0,0,6.2.31c3.413-.931,4.654-2.478,7.754-3.1,2.056-.413,3.294-1.772,4.529-2.192q-2.922-1.918-5.962-3.666a1.607,1.607,0,0,1-.428,1.828C308.34,157.3,308.648,150.475,306.48,154.2Zm19.536,80.312s-2.169-4.029-1.86-6.51-5.274-5.891-10.857-2.17c0,0-2.79,1.861-2.168-2.481,0,0-8.682-2.17-10.853,1.86,0,0-.31,9.924-3.722,3.72,0,0,2.482-10.232-4.961-11.161s-7.443-2.792-7.133-5.274-7.751-3.722-5.892-8.06c0,0-5.581-8.993-1.238-12.406l4.03-2.477-.31-4.344s1.862-6.513,8.681-7.751,3.1-7.443-1.238-8.064-13.024-2.482-13.024-2.482-2.482-12.093-1.552-11.163,6.2,2.174,11.473,3.412a19.391,19.391,0,0,0,9.3,0s1.243-1.548-3.722-1.86-1.239-3.1-.308-3.413-2.169-2.478-2.169-2.478l13.642.617s-3.409-3.407-1.548-3.407a39.822,39.822,0,0,1,8.441,1.035,122.9,122.9,0,0,0-33.312-12.158l-.247-.041-47.136,36.281-55.818,69.148-14.882,42.482,13.645,52.408L212.521,372.5l31.008,8.064,16.744-1.861s-1.548-10.544,4.035-10.854a4.453,4.453,0,0,1-.621-4.651s-.541-4.964,1.859-5.584a3.942,3.942,0,0,0-.619-1.628c-1.221-1.106-3.567-2.556-2.171-4.884a1.914,1.914,0,0,1,.466-2.56s-.2-.828-.7-1.006c-.985-.347-2.241-.887-1.006-3.565a2.06,2.06,0,0,0-1.319-.543c-2.752.157-8.9.591-3.955-5.347a16.107,16.107,0,0,1-4.961-1.861c-2.789-1.551-6.51-6.822-6.2-12.095s-6.512-6.819-11.163-7.751-4.651-8.993-4.341-11.786,2.17-6.509-2.794-8.68-5.576-9.925-2.477-10.853,22.636-7.755,24.805-12.093,3.72-4.96,8.994-6.2,3.721-6.2,6.823-7.134,8.369-3.719,12.715-1.858-1.241-4.651,6.2-2.167c0,0,2.169-4.345,9.612,3.1,0,0,5.272-2.177,8.064.306,0,0,2.79.314,2.79-3.405s-1.552-7.758.93-7.758,7.751-.309,7.751-.309,2.169-1.862-3.72-6.822c0,0,0-7.132,8.063,1.861C317.334,242.572,328.185,245.671,326.016,234.508Z" style="fill: url(#a)"/>
    <path d="M374.156,258.671a123.187,123.187,0,0,0-21.245-69.356,16.278,16.278,0,0,0-1.779,3.953c2.48.933,5.274,6.513,5.274,6.513l.619,12.093c-.31,4.344-3.1,5.892-3.1,5.892A36.3,36.3,0,0,1,351.755,228c-6.512,12.4-4.651,4.652-4.651,4.652,4.96-7.754,3.72-13.025,3.72-13.025l-2.172.931a42.828,42.828,0,0,1-6.2,13.646c-4.344,3.1-1.554,8.37-1.554,8.37-7.135,7.444-15.191,4.032-15.191,4.032-8.685,7.128-15.509,8.064-15.509,8.064v3.722l-4.959.309c-3.72,6.195-5.581,2.167-5.581,2.167-7.755,5.583-1.242,6.2-.621,11.782s6.822,6.822,3.411,11.786-5.892,13.644-9.925,17.673a27.853,27.853,0,0,1-9.61,5.893s3.72,7.754-4.032,44.343-48.065,23.878-48.065,23.878c2.676,2.752,7.259,4.832,13.141,6.074q3.184.162,6.409.164A123.787,123.787,0,0,0,374.156,258.671Z" style="fill: url(#b)"/>
    <path d="M126.582,258.671a123.522,123.522,0,0,0,7.394,42.214c.141.227.276.435.4.6,2.249,3.065-2.187-15.317,2.094-34.961,2.216-10.168,9.535-24.887,15.581-28.609,0,0-30.7,50.236,3.723,99.231q3.274,4.659,6.764,8.739a123.383,123.383,0,0,0,87.829,36.572,124.987,124.987,0,0,0,18.19-1.343c-18.874-1.245-58.311-8.961-87.044-49.551-11.556-16.323-13.955-33.8-10.544-48.995,1.551-6.912,10.854-21.242,24.188-26.664,70.008-28.483,93.051-77.878,84.989-117.392A123.808,123.808,0,0,0,126.582,258.671Z" style="fill: url(#c)"/>
    <path d="M407.784,109.318a224.288,224.288,0,0,0-46.035-37.586C328.5,51.4,292.324,41.124,253.475,39.964a205.732,205.732,0,0,0-34.087,2.071A216.047,216.047,0,0,0,97.1,102.427c-.6.595-1.858,1.109-1.347,2.129.369.741,1.541.351,2.352.351q18.113.036,36.228.035c3.425,0,3.468.05,3.475,3.557q.011,9.183,0,18.366c0,6.373-.007,12.746.011,19.121,0,.725-.3,1.71.462,2.084.983.478,1.413-.628,1.983-1.15,3.888-3.571,7.742-7.166,11.858-10.494a153.229,153.229,0,0,1,55.46-28.625,155.447,155.447,0,0,1,60.54-4.425,148.4,148.4,0,0,1,43.466,11.981,153.345,153.345,0,0,1,48.883,34.322,5.624,5.624,0,0,0,3.808,2.122c12.281.9,24.555,1.906,36.828,2.89,4.936.4,5.068.241,5.43-4.8.863-12.117,1.731-24.233,2.739-36.339A4.945,4.945,0,0,0,407.784,109.318Z" style="fill: #0080c9"/>
    <path d="M139.185,366.147a155.393,155.393,0,0,1-42.524-81.434c-2.529-13.272-2.634-26.688-1.955-40.089a115.585,115.585,0,0,1,3.183-21.084,168.916,168.916,0,0,1,9.6-29.019,155.943,155.943,0,0,1,17.8-30.265,6.4,6.4,0,0,0,1.487-4.1c-.048-6.373-.019-12.746-.019-19.119h-.008c0-6.625-.04-13.251.024-19.876.017-1.88-.57-2.72-2.585-2.738-13.075-.118-26.156.265-39.226-.441a4.51,4.51,0,0,0-3.935,1.722c-2.647,3.03-5,6.275-7.381,9.507a213.378,213.378,0,0,0-34.134,71.159q-2.745,10.425-4.521,21.081c-1.094,6.533-1.741,13.1-2.32,19.689a192.507,192.507,0,0,0-.075,31.381,221.694,221.694,0,0,0,4.81,32.533A216.98,216.98,0,0,0,95.763,410.557c.609.608,1.166,1.76,2.211,1.276,1-.462.588-1.648.59-2.522q.033-18.612.017-37.229c0-3.493.012-3.507,3.5-3.507q17.986-.015,35.976-.021c.786,0,1.875.362,2.247-.6C140.608,367.163,139.7,366.658,139.185,366.147Z" style="fill: #009b93"/>
    <path d="M417.841,390.606c-6.961-.028-13.924-.014-20.885-.014v-.035q-10.191,0-20.38,0c-3.258,0-3.349-.094-3.349-3.42q0-16.6,0-33.208c0-.727.237-1.7-.549-2.063-.926-.417-1.187.647-1.66,1.159-.8.862-1.617,1.708-2.355,2.616a150.023,150.023,0,0,1-24.746,24.205,156.815,156.815,0,0,1-45.643,24.407,136.246,136.246,0,0,1-35.05,7.256,174.817,174.817,0,0,1-32.118-.518,158.216,158.216,0,0,1-26.96-5.608,153.5,153.5,0,0,1-48.687-25.008,5.865,5.865,0,0,0-3.7-1.3c-12.829-.01-25.661,0-38.492-.073-2.07-.01-2.787.773-2.776,2.825q.095,20,.019,40a4.3,4.3,0,0,0,1.755,3.632,201.577,201.577,0,0,0,31.065,21.22,216.033,216.033,0,0,0,51.82,20.761,209.2,209.2,0,0,0,30.535,5.636,215.047,215.047,0,0,0,42.135.379,241.712,241.712,0,0,0,36.8-6.283A206.267,206.267,0,0,0,343.42,452.9a223.136,223.136,0,0,0,34.963-21.189,216.857,216.857,0,0,0,21.29-17.958,241.538,241.538,0,0,0,19.187-20.9c.424-.508,1.172-.988.96-1.66C419.521,390.251,418.536,390.609,417.841,390.606Z" style="fill: #6eb744"/>
  </g>
</svg>
